<svg width="110" height="44" viewBox="0 0 110 44" fill="none" xmlns="http://www.w3.org/2000/svg">
<path d="M43.9346 23.6674L47.5519 23.7048C47.5519 23.7048 48.1883 23.5343 48.4558 23.3731C48.7632 23.1877 49.0451 22.9492 49.2209 22.6665C49.291 22.5539 49.3226 22.2946 49.3226 22.2946C49.3226 22.2946 49.5292 11.1783 49.4965 5.92677C49.4944 5.65894 49.0203 5.28927 48.9565 5.227C48.8729 5.14539 48.5774 4.92247 48.3549 4.80985C48.0001 4.63023 47.5739 4.64812 47.169 4.65016C45.1114 4.66052 40.9088 4.67957 40.9088 4.67957M23.7281 37.1797C23.7281 37.1797 26.6397 39.7919 28.0407 41.0362C28.3544 41.3147 28.8738 41.3941 29.3275 41.4189C29.7178 41.44 30.1121 41.3357 30.4752 41.2128C30.6395 41.1572 30.8038 41.0846 30.9273 40.9773C32.1502 39.9146 34.7878 37.5624 34.7878 37.5624M23.4847 32.5284L32.0055 39.682M39.935 22.3721L41.7265 23.9644M45.105 28.6669L34.4052 19.5166M23.3803 28.8486C23.3803 28.8486 34.7438 19.0504 35.3442 18.6629C35.7238 18.4179 36.2339 18.3402 36.6879 18.4009C37.2362 18.4744 37.6995 18.6816 37.8735 18.8301C40.0608 20.6975 44.016 24.0543 45.9865 25.7575C46.264 25.9974 46.3206 26.4247 46.3594 26.7797C46.3873 27.0336 46.3487 27.2971 46.2556 27.5396C46.1919 27.7053 46.0607 27.9009 45.9517 27.9949C44.9601 28.8497 43.0999 30.4383 43.0999 30.4383M23.4499 23.7557L29.1188 23.7851M23.6238 22.4015L30.4752 22.5192M39.4689 5.87787L45.1171 5.91597L45.291 22.5193L42.3 22.5487M30.4702 10.7316L32.0445 12.1052M40.5299 2.26198L41.9504 3.43323M40.9574 4.37629L39.4747 3.1097M23.616 4.56082L37.3002 4.62232M23.4302 5.86788L35.9901 5.83289L30.4125 10.5541L28.0575 14.0163L32.0651 12.1278C32.0651 12.1278 43.0844 2.7005 43.2958 2.46846C43.4255 2.32607 43.3879 2.10268 43.3296 1.92981C43.2611 1.72714 42.9015 1.41151 42.9015 1.41151C42.9015 1.41151 42.5523 1.07362 42.1156 1.00631C41.9322 0.978062 41.7208 1.04759 41.5851 1.15572C41.3774 1.32115 35.9489 5.86786 35.9489 5.86786M47.2648 13.1934L47.2749 15.1102M8.17755 42.9383L9.78553 32.4386M16.6587 21.1972C16.6587 21.1972 18.0686 22.0093 18.8721 22.2162C19.5437 22.3891 20.2738 22.4626 20.969 22.3805C21.8214 22.28 23.3766 21.5917 23.3766 21.5917M38.2576 36.4859C38.2604 35.6767 38.644 34.8021 39.3221 34.2318C39.9235 33.7261 40.842 33.4386 41.6896 33.446C42.649 33.4547 43.6717 33.8055 44.3469 34.3825C44.9259 34.8775 45.2512 35.6231 45.2737 36.3195C45.2971 37.048 45.0037 37.8399 44.4359 38.3878C43.8224 38.9797 42.8654 39.3985 41.9365 39.4382C40.9728 39.479 39.9146 39.1482 39.2274 38.5748C38.598 38.0496 38.2551 37.234 38.2576 36.4859ZM34.2619 37.2902L34.2959 35.6511C34.2959 35.6511 34.9488 35.6398 35.2477 35.5471C35.6297 35.4283 35.9854 35.216 36.244 34.9501C36.443 34.7455 36.5637 34.4842 36.6293 34.2251C36.6987 33.9516 36.7443 33.6483 36.6293 33.3861C36.4638 33.0087 35.7633 32.4378 35.7633 32.4378L37.1099 31.2251C37.1099 31.2251 37.5327 31.5352 37.7707 31.6573C38.0379 31.7944 38.3119 31.9564 38.6219 31.9896C38.9958 32.0297 39.3941 31.9553 39.7341 31.8179C39.9323 31.7377 40.0881 31.5932 40.2336 31.4539C40.4249 31.2708 40.621 31.0751 40.7141 30.8438C40.834 30.5463 40.7913 29.9031 40.7913 29.9031L42.7866 29.8777L42.8466 30.7263C42.8466 30.7263 42.9454 31.1081 43.0569 31.276C43.1645 31.438 43.3161 31.5814 43.4867 31.6985C43.6703 31.8245 43.8789 31.9387 44.1081 31.9878C44.4368 32.0582 44.798 32.0573 45.1251 31.9817C45.4211 31.9134 45.9216 31.5907 45.9216 31.5907L46.3556 31.2531L47.732 32.4599C47.732 32.4599 47.3334 32.8131 47.1717 33.0302C47.023 33.2299 46.9002 33.4564 46.8713 33.6912C46.839 33.9559 46.9022 34.233 47.0215 34.4793C47.1657 34.7775 47.3974 35.0538 47.6823 35.2675C47.8868 35.4208 48.1383 35.541 48.4031 35.598C48.6967 35.6611 49.2988 35.654 49.2988 35.654L49.3206 37.3374C49.3206 37.3374 48.6163 37.3322 48.2792 37.4081C48.0257 37.4638 47.7648 37.5414 47.5643 37.6841C47.3021 37.8707 47.0796 38.1235 46.9839 38.4019C46.8782 38.7089 46.9113 39.0548 47.0215 39.3606C47.1609 39.7471 47.7811 40.3882 47.7811 40.3882L46.3531 41.6002C46.3531 41.6002 45.8558 41.2045 45.5498 41.0894C45.2143 40.9632 44.8329 40.8732 44.4685 40.9115C44.1199 40.9481 43.7779 41.0937 43.5145 41.2905C43.2471 41.4901 43.0517 41.7682 42.9427 42.0555C42.8404 42.3253 42.8334 42.8822 42.8334 42.8822L40.8039 42.8809C40.8039 42.8809 40.8079 42.4163 40.7366 42.1902C40.6373 41.8742 40.4507 41.5628 40.1795 41.33C39.9371 41.1219 39.6149 40.9632 39.2785 40.8978C38.9753 40.8389 38.6392 40.8575 38.3474 40.9486C37.8526 41.1029 37.0799 41.7497 37.0799 41.7497L35.6082 40.4277C35.6082 40.4277 36.2094 39.9833 36.3891 39.6904C36.5738 39.3894 36.6972 39.0366 36.6594 38.6989C36.6244 38.3853 36.4611 38.066 36.2089 37.8345C35.9798 37.6242 35.6377 37.5166 35.3172 37.4256C34.9799 37.3298 34.2619 37.2895 34.2619 37.2895L34.2619 37.2902ZM11.8248 9.64119C11.8248 9.64119 11.6699 7.77961 11.9344 6.88963C12.267 5.77019 12.8967 4.68746 13.7475 3.78539C14.6065 2.87472 15.6906 2.0462 16.9525 1.5805C18.2791 1.09097 19.8061 1.01024 21.2516 1.06853C22.0118 1.09919 23.4721 1.5185 23.4721 1.5185V43H0.543826C0.543826 43 0.434531 35.5933 0.561135 31.849C0.579717 31.2995 0.734834 30.6998 1.05011 30.2191C1.39322 29.696 1.80526 29.1959 2.53897 28.8728C6.16853 27.2745 10.4894 26.1675 14.6213 24.4211C15.2272 24.165 15.6387 23.643 16.0003 23.1583C16.2811 22.7819 16.4635 22.3511 16.5863 21.9182C16.6492 21.6962 16.6595 21.2362 16.6595 21.2362C16.6595 21.2362 15.166 19.9632 14.5641 19.2304C14.0795 18.6405 13.3631 17.3298 13.3631 17.3298L12.703 15.9898C12.703 15.9898 11.9326 15.7962 11.6193 15.5951C11.1234 15.2767 10.7085 14.8434 10.4464 14.3656C10.0315 13.6092 9.81959 12.7407 9.88797 11.9088C9.9261 11.4449 10.1042 10.9688 10.4204 10.5886C10.765 10.1743 11.8248 9.64119 11.8248 9.64119Z" stroke="white" stroke-miterlimit="10" stroke-linecap="round"/>
<path d="M67.3173 37.4364C67.2467 39.0727 68.7834 39.8909 71.9277 39.8909V43H55.5V39.8909C58.5382 39.8909 60.0574 39.0727 60.0574 37.4364V20.8545C60.0574 19.1818 58.5382 18.3455 55.5 18.3455V15.2364H67.3173V37.4364ZM67.9532 6.07273C67.9532 7.34545 67.5116 8.45454 66.6284 9.4C65.7805 10.3091 64.7207 10.7636 63.4489 10.7636C62.813 10.7636 62.2124 10.6364 61.6471 10.3818C61.1172 10.1273 60.6403 9.8 60.2163 9.4C59.8277 8.96364 59.5098 8.47273 59.2625 7.92727C59.0152 7.34545 58.8915 6.72727 58.8915 6.07273C58.8915 4.76364 59.3331 3.67273 60.2163 2.8C61.1349 1.89091 62.2124 1.43636 63.4489 1.43636C64.6854 1.43636 65.7452 1.89091 66.6284 2.8C67.5116 3.70909 67.9532 4.8 67.9532 6.07273ZM95.5205 39.922C96.4037 39.9222 96.064 39.6304 96.064 39.0486C96.064 38.794 95.8505 38.4363 95.5679 38.0363L88.9968 28.8181L83.6446 32.6363V37.4363C83.6446 39.0726 85.146 39.8908 88.1489 39.8908L95.5205 39.922ZM71.8803 42.9999V39.8908C74.9185 39.8908 76.4376 39.0726 76.4376 37.4363V6.56364C76.4376 4.92727 74.9185 4.10909 71.8803 4.10909V1H83.6446V29.0364L94.879 20.6909C95.3382 20.3636 95.5679 19.9455 95.5679 19.4364C95.5679 19.1455 95.4619 18.8909 95.2499 18.6727C95.0379 18.4545 94.6847 18.3455 94.1901 18.3455H91.6464V15.2364H107.332V18.3455C105.99 18.4545 104.718 18.6909 103.517 19.0545C102.316 19.3818 101.256 19.8909 100.337 20.5818L94.667 24.8364L104.1 38.0364C104.524 38.6545 105.071 39.1273 105.742 39.4546C106.414 39.7455 107.332 39.8909 108.498 39.8909L108.5 42.9857L89.321 42.9705L71.8803 42.9999Z" fill="white" stroke="white" stroke-width="2" stroke-miterlimit="10" stroke-linecap="round"/>
</svg>
