<svg width="46" height="24" viewBox="0 0 46 24" fill="none" xmlns="http://www.w3.org/2000/svg">
<path d="M38.5 1H39.5V0H38.5V1ZM37.7929 23.2071C38.1834 23.5976 38.8166 23.5976 39.2071 23.2071L45.5711 16.8431C45.9616 16.4526 45.9616 15.8195 45.5711 15.4289C45.1805 15.0384 44.5474 15.0384 44.1569 15.4289L38.5 21.0858L32.8431 15.4289C32.4526 15.0384 31.8195 15.0384 31.4289 15.4289C31.0384 15.8195 31.0384 16.4526 31.4289 16.8431L37.7929 23.2071ZM0 2H38.5V0H0V2ZM37.5 1V22.5H39.5V1H37.5Z" fill="white"/>
</svg>
