<svg width="40" height="40" viewBox="0 0 40 40" fill="none" xmlns="http://www.w3.org/2000/svg">
<path d="M16.6663 23.3333L34.9996 5M16.6663 23.3333L22.4996 35C22.5728 35.1596 22.6902 35.2948 22.8379 35.3896C22.9856 35.4844 23.1574 35.5348 23.333 35.5348C23.5085 35.5348 23.6803 35.4844 23.828 35.3896C23.9758 35.2948 24.0932 35.1596 24.1663 35L34.9996 5M16.6663 23.3333L4.99963 17.5C4.84006 17.4269 4.70484 17.3095 4.61004 17.1618C4.51524 17.014 4.46484 16.8422 4.46484 16.6667C4.46484 16.4911 4.51524 16.3193 4.61004 16.1716C4.70484 16.0239 4.84006 15.9065 4.99963 15.8333L34.9996 5" stroke="#2E2E2E" stroke-width="4" stroke-linecap="round" stroke-linejoin="round"/>
</svg>
