<svg width="40" height="40" viewBox="0 0 40 40" fill="none" xmlns="http://www.w3.org/2000/svg">
<path d="M34 12V10H30V4H6V32H16V40H22.5H22C20.9391 40 19.9217 39.5786 19.1716 38.8284C18.4214 38.0783 18 37.0609 18 36V16C18 14.9391 18.4214 13.9217 19.1716 13.1716C19.9217 12.4214 20.9391 12 22 12H34ZM22.5 40H6C4.93913 40 3.92172 39.5786 3.17157 38.8284C2.42143 38.0783 2 37.0609 2 36V4C2 1.8 3.8 0 6 0H30C31.0609 0 32.0783 0.421427 32.8284 1.17157C33.5786 1.92172 34 2.93913 34 4V12C35.0609 12 36.0783 12.4214 36.8284 13.1716C37.5786 13.9217 38 14.9391 38 16V36C38 37.0609 37.5786 38.0783 36.8284 38.8284C36.0783 39.5786 35.0609 40 34 40H22.5ZM22 16V32H34V16H22ZM28 38C28.5304 38 29.0391 37.7893 29.4142 37.4142C29.7893 37.0391 30 36.5304 30 36C30 35.4696 29.7893 34.9609 29.4142 34.5858C29.0391 34.2107 28.5304 34 28 34C27.4696 34 26.9609 34.2107 26.5858 34.5858C26.2107 34.9609 26 35.4696 26 36C26 36.5304 26.2107 37.0391 26.5858 37.4142C26.9609 37.7893 27.4696 38 28 38Z" fill="#2E2E2E"/>
</svg>
