<svg width="40" height="40" viewBox="0 0 40 40" fill="none" xmlns="http://www.w3.org/2000/svg">
<path d="M1.66602 36.6666C1.66602 33.1304 3.07077 29.739 5.57126 27.2386C8.07174 24.7381 11.4631 23.3333 14.9993 23.3333C18.5356 23.3333 21.927 24.7381 24.4274 27.2386C26.9279 29.739 28.3327 33.1304 28.3327 36.6666H1.66602ZM14.9993 21.6666C9.47435 21.6666 4.99935 17.1916 4.99935 11.6666C4.99935 6.14164 9.47435 1.66664 14.9993 1.66664C20.5243 1.66664 24.9993 6.14164 24.9993 11.6666C24.9993 17.1916 20.5243 21.6666 14.9993 21.6666ZM30.4093 5.30831C31.2403 7.3251 31.6672 9.48538 31.666 11.6666C31.6675 13.8485 31.2405 16.0093 30.4093 18.0266L27.6143 15.9933C28.091 14.6006 28.3337 13.1386 28.3327 11.6666C28.3342 10.1947 28.0921 8.73275 27.616 7.33997L30.4093 5.30831ZM35.9127 1.30664C37.5098 4.52631 38.3382 8.07261 38.3327 11.6666C38.3327 15.3883 37.461 18.9066 35.9127 22.0283L33.171 20.0333C34.3774 17.4091 35.0012 14.5548 34.9993 11.6666C35.0012 8.77845 34.3774 5.92413 33.171 3.29997L35.9127 1.30664Z" fill="#2E2E2E"/>
</svg>
